<svg xmlns="http://www.w3.org/2000/svg" height="512" viewBox="0 0 60 60" width="512"><g id="041---Family-Housing" transform="translate(0 -1)"><path id="Shape" d="m58.631 14.289-26.991-12.916c-1.0358029-.50006581-2.2431971-.50006581-3.279 0l-26.992 12.916c-.5827776.2797219-1.02901864.7814937-1.23878752 1.3929436-.20976888.61145-.16553787 1.281487.12278752 1.8600564l1.554 3.123c.58889615 1.1665741 1.99837221 1.6538223 3.182 1.1l24.839-11.823c.265-.127-1.408-.8 25.183 11.826 1.1835381.5555225 2.5942244.0678559 3.182-1.1l1.554-3.123c.2890058-.5789195.3336102-1.2496002.1238143-1.8616931-.209796-.6120929-.6564429-1.1143963-1.2398143-1.3943069zm-2.231 5.485c-.0957794.1985607-.3341582.2821945-.533.187-27.097-13.061-25.095-12.061-25.867-12.061s1.365-.765-25.87 12.059c-.1985866.0945234-.43623292.0109899-.532-.187l-1.554-3.121c-.04967628-.0986697-.05775301-.2131281-.02242521-.3177961.03532781-.104668.11111516-.1908204.21042521-.2392039l26.993-12.918c.4898533-.23693755 1.0611467-.23693755 1.551 0 28.872 13.824 27.113 12.901 27.201 13.154.082.235.088.111-1.577 3.444z"></path><path id="Shape" d="m17.667 26.981c1.3698422-1.2254998 1.7282197-3.2268104.8687674-4.8515131-.8594523-1.6247028-2.7155107-2.4545978-4.4993974-2.011805-1.7838868.4427928-3.0364278 2.0442981-3.03637 3.8823181.0000496 1.5774631.927202 3.0075814 2.3672684 3.6514749 1.4400663.6438935 3.1240776.3812986 4.2997316-.6704749zm-4.667-2.981c0-1.1045695.8954305-2 2-2s2 .8954305 2 2-.8954305 2-2 2-2-.8954305-2-2z"></path><path id="Shape" d="m47.636 26.981c1.3698422-1.2254998 1.7282197-3.2268104.8687674-4.8515131-.8594523-1.6247028-2.7155107-2.4545978-4.4993974-2.011805-1.7838868.4427928-3.0364278 2.0442981-3.03637 3.8823181.0000496 1.5774631.927202 3.0075814 2.3672684 3.6514749 1.4400663.6438935 3.1240776.3812986 4.2997316-.6704749zm-4.667-2.981c0-1.1045695.8954305-2 2-2s2 .8954305 2 2-.8954305 2-2 2-2-.8954305-2-2z"></path><path id="Shape" d="m17 30h-4c-3.31233757.0033074-5.99669262 2.6876624-6 6v7c0 1.6568542 1.34314575 3 3 3v12c.000815 1.1826788.6963988 2.2545129 1.7761985 2.7369675 1.0797998.4824545 2.3422848.2854855 3.2238015-.5029675.8815167.788453 2.1440017.985422 3.2238015.5029675 1.0797997-.4824546 1.7753835-1.5542887 1.7761985-2.7369675v-12c1.6568542 0 3-1.3431458 3-3v-7c-.0033074-3.3123376-2.6876624-5.9966926-6-6zm4 13c0 .5522847-.4477153 1-1 1s-1-.4477153-1-1v-5c0-.5522847-.4477153-1-1-1s-1 .4477153-1 1v5c.0009751.8465611.3651067 1.6520204 1 2.212v12.788c0 .5522847-.4477153 1-1 1s-1-.4477153-1-1v-10c0-.5522847-.4477153-1-1-1s-1 .4477153-1 1v10c0 .5522847-.4477153 1-1 1s-1-.4477153-1-1v-12.788c.6348933-.5599796.9990249-1.3654389 1-2.212v-5c0-.5522847-.4477153-1-1-1s-1 .4477153-1 1v5c0 .5522847-.4477153 1-1 1-.55228475 0-1-.4477153-1-1v-7c0-2.209139 1.790861-4 4-4h4c2.209139 0 4 1.790861 4 4z"></path><path id="Shape" d="m51.783 33.642c-.6095238-2.1536077-2.574799-3.6407326-4.813-3.642h-3.94c-2.2375565-.0003564-4.2029371 1.485932-4.812 3.639l-2.1 7.44c-.282411.972057-.0566225 2.0209763.60073 2.7907415.6573524.7697651 1.6579849 1.1569949 2.66227 1.0302585l-.26 1.263c-.3256151 1.1078214.0166757 2.304087.879 3.072v8.765c.000815 1.1826788.6963988 2.2545129 1.7761985 2.7369675 1.0797998.4824545 2.3422848.2854855 3.2238015-.5029675.8815167.788453 2.1440017.985422 3.2238015.5029675 1.0797997-.4824546 1.7753835-1.5542887 1.7761985-2.7369675v-8.765c.8526708-.743255 1.2027316-1.9101243.9-3l-.279-1.335c1.0015508.1273385 1.9999825-.2576391 2.6567813-1.024408.6567989-.7667688.8838672-1.8124807.6042187-2.782592zm.094 8.758c-.1863263.3413127-.5550499.5421118-.9428524.5134575s-.7230093-.281466-.8571476-.6464575l-1.1-4.5c-.0753009-.3569146-.3389696-.6445131-.6880165-.7504589-.3490469-.1059457-.7280914-.0134292-.989078.2414125-.2609865.2548417-.3625063.6315747-.2649055.9830464 1.345 5.5.91 3.569 1.932 8.485.1272818.4416696-.0629086.9132263-.461 1.143-.309084.1784495-.4996339.5081008-.5.865v9.266c0 .5522847-.4477153 1-1 1s-1-.4477153-1-1v-9c0-.5522847-.4477153-1-1-1s-1 .4477153-1 1v9c0 .5522847-.4477153 1-1 1s-1-.4477153-1-1v-9.27c-.0003661-.3568992-.190916-.6865505-.5-.865-.4170162-.2516925-.6012731-.7606917-.442-1.221 1-4.818.568-2.91 1.913-8.407.0976008-.3514717-.003919-.7282047-.2649055-.9830464-.2609866-.2548417-.6400311-.3473582-.989078-.2414125-.3490469.1059458-.6127156.3935443-.6880165.7504589l-1.1 4.5c-.2106257.4691573-.7427506.7020705-1.2303173.5385147-.4875668-.1635558-.7715888-.6702479-.6566827-1.1715147l2.1-7.453c.3672805-1.2874496 1.5431872-2.1757039 2.882-2.177h3.94c1.3420671-.0003016 2.5210631.8907857 2.887 2.182l2.1 7.46c.0757919.2531965.0469784.5262041-.08.758z"></path><path id="Shape" d="m33.114 43.486c1.3071611-1.6307503 1.1340232-3.9939469-.3968558-5.4167702-1.5308789-1.4228234-3.9004095-1.4228234-5.4312884 0-1.530879 1.4228233-1.7040169 3.7860199-.3968558 5.4167702-1.7561779.8179166-2.8818205 2.5767089-2.889 4.514v3c0 1.1045695.8954305 2 2 2v5.5c0 .9469301.5350059 1.8125879 1.381966 2.236068.8469601.42348 1.8604899.3320901 2.618034-.236068.7575441.5681581 1.7710739.659548 2.618034.236068.8469601-.4234801 1.381966-1.2891379 1.381966-2.236068v-5.5c1.1045695 0 2-.8954305 2-2v-3c-.0066344-1.9366009-1.1309921-3.6952117-2.886-4.514zm-3.114-4.486c1.1045695 0 2 .8954305 2 2s-.8954305 2-2 2-2-.8954305-2-2 .8954305-2 2-2zm4 12c-1.1045695 0-2 .8954305-2 2v5.5c0 .2761424-.2238576.5-.5.5s-.5-.2238576-.5-.5c0-.5522847-.4477153-1-1-1s-1 .4477153-1 1c0 .2761424-.2238576.5-.5.5s-.5-.2238576-.5-.5v-5.5c0-1.1045695-.8954305-2-2-2v-3c0-1.6568542 1.3431458-3 3-3h2c1.6568542 0 3 1.3431458 3 3z"></path></g></svg>