<svg xmlns="http://www.w3.org/2000/svg" height="512" viewBox="0 0 60 52" width="512"><path id="Shape" d="m43.963 0c-5.6047734.00325785-10.8400221 2.79691524-13.963 7.451-3.1229779-4.65408476-8.3582266-7.44774215-13.963-7.451-9.891 0-16.037 6.405-16.037 16.717 0 9.019 4.687 13.584 8.592 17.3 6.354 6.05 13.378 11.925 20.138 17.524.7367255.6101918 1.8032745.6101918 2.54 0 15.023-12.441 16.966-14.632 19.551-16.985 4.089-3.73 9.179-8.373 9.179-17.839 0-10.312-6.146-16.717-16.037-16.717zm-33.463 33.058c.7095382-1.2675958 2.0473372-2.0542215 3.5-2.058h.25c.7389943 1.3592179 2.2204929 2.1433089 3.76 1.99 1.5303793.1314374 2.9953813-.6476524 3.742-1.99h.248c.041 0 .072.01.112.011.1857448.9399107.8501069 1.7139249 1.751 2.04.1520896.8467356.5613103 1.6260706 1.172 2.232.3490566.3447939.6537421.7317813.907 1.152.077.117.058 0 .058.655-2.682667.4569221-4.7230594 2.6602012-4.973 5.37-7.539-6.425-7.577-6.709-10.527-9.402zm1.5-18.058c.0033061-2.7600532 2.2399468-4.9966939 5-5h2c2.7600532.0033061 4.9966939 2.2399468 5 5 0 0 0 .453-.057 1.055-.2880375-.8436532-.7511613-1.6168892-1.359-2.269-.4131239-.4117226-.9610962-.6603167-1.543-.7-1.436-.11-4.857-.092-6.09 0-.5755457.0407597-1.117368.2866555-1.527.693-.6136068.6518609-1.0798178 1.4280835-1.367 2.276-.057-.602-.057-1.055-.057-1.055zm.75 3.732c.537406.0004088.9790413-.4240027 1-.961.0239222-.7136841.2469927-1.4064493.644-2 .374-.535.463-.672.716-.694 1.9234434-.0970441 3.8505566-.0970441 5.774 0 .234.019.3.085.718.685.3999357.5951258.6251143 1.2904081.65 2.007.0209587.5369973.462594.9614088 1 .961.306 0 .75.519.75 1.333s-.442 1.329-.815 1.329c-.2827802-.0622354-.5786537.0011528-.8111178.1737747-.2324642.1726218-.378695.4375289-.4008822.7262253-.0164669.7932899-.310923 1.5556199-.832 2.154-1.489 1.397-1.571 2.554-2.33 2.554h-1.626c-.732 0-.9-1.211-2.333-2.553-.5182481-.5981212-.8108268-1.3587551-.827-2.15-.0377276-.2946946-.1975109-.559988-.4403582-.7311412-.2428474-.1711532-.5464215-.2324233-.8366418-.1688588-.347 0-.75-.582-.75-1.334s.4-1.331.75-1.331zm3.25 10c.671.333 1.09.266 2.813.266.4109721.0070633.8177635-.083411 1.187-.264v1.318c-.5 1.258-3.479 1.269-4-.008zm33.118.917c-1.1102709-1.0576318-2.5846097-1.6480118-4.118-1.649v-1.54c.6918437-.9769499 1.2582745-2.036908 1.686-3.155.1040517.0143969.2089573.021747.314.022v2.673c-.0026517.4998693.3677523.9232938.8635342.9871426s.9613811-.2519119 1.0854658-.7361426c.6154324.3282154 1.013314.9554884 1.0479403 1.6521114.0346262.6966229-.2990895 1.3602606-.8789403 1.7478886zm-13.676-1.436c-.252128-.3920114-.607491-.70689-1.027-.91-.090069-.4520984-.2397073-.8902527-.445-1.303.2699039.0064452.5310712-.0958667.7247766-.2839301.1937053-.1880635.3036901-.4460934.3052234-.7160699v-1.673c.1050427-.000253.2099483-.0076031.314-.022.4281187 1.1179125.9945241 2.1778229 1.686 3.155v1.54c-.5264729.001712-1.0503867.0733382-1.558.213zm12.558-9.435c-.3101078.7090772-.5243271 1.4563225-.637 2.222 0 .181-.136.329-.435.32-.8232212-.2400166-1.6929421.1913649-2 .992-2.391 6.1-5.369 6.355-7.86 0-.332338-.825847-1.2471907-1.2535646-2.094-.979-.1836922-.0021046-.3327023-.149346-.337-.333-.1137505-.7657668-.327928-1.5132025-.637-2.223.0716542-.2039545.2365301-.3613389.443594-.4234383.2070638-.0620993.431339-.0214231.603406.1094383.2696942.2046475.6246191.258944.9431609.1442851.3185419-.1146589.5574408-.3827019.6348391-.7122851.8-.525 2.973-1.752 4.374-2.781 1.414 1.036 3.6 2.278 4.374 2.781.0773983.3295832.3162972.5976262.6348391.7122851.3185418.1146589.6734667.0603624.9431609-.1442851.1722746-.1316796.3972604-.1727258.6049357-.1103638.2076754.062362.3728304.220562.4440643.4253638zm-9 9.635c1.2184287.7828314 2.7815713.7828314 4.0000031 0l-.0000031.54c.001933 1.1045695-.8919305 2.001567-1.9965 2.0035s-2.001567-.8919305-2.0035-1.9965zm8-12.048c-.0915833.0065482-.1827268.0182333-.273.035-.556-.417-3.4-2-4.8-3.088-.5551496-.4149371-1.3179724-.4120816-1.87.007-1.271.985-4.226 2.664-4.786 3.081-.0896277-.0165984-.1800962-.0282825-.271-.035v-.616c-.0625853-3.1039233 2.3963475-5.6741787 5.5-5.749h1c3.1055739.0704658 5.5670215 2.6433499 5.5 5.749zm-14.5 11.775c.0209587.5369973.462594.9614088 1 .961.172 0 .5.4.5 1.023s-.326 1.02-.529 1.02c-.282195-.0609165-.5769475.0030966-.8084543.1755769-.2315068.1724802-.3771763.436596-.3995457.7244231-.0122866.6544072-.2499964 1.2845325-.673 1.784-.4636799.451444-.8691522.9590403-1.207 1.511-.43.658-.474.658-.686.658h-1.397c-.507 0-.7-1.037-1.9-2.174-.4201958-.4987865-.6560544-1.1269189-.668-1.779-.0293081-.2905626-.1810487-.5548672-.4171965-.7266805-.2361478-.1718132-.5343227-.2348521-.8198035-.1733195-.177 0-.5-.388-.5-1.022s.323-1.023.5-1.023c.537406.0004088.9790413-.4240027 1-.961.165-4.19 6.845-4.179 7.005.002zm-4.5 9.835c.6660664.0400088 1.3339336.0400088 2 0 0 1.073.118 2.025-.99 2.025-.2738226.0284662-.5459846-.0673234-.741616-.2610179-.1956313-.1936944-.2941243-.4648898-.268384-.7389821zm2.006 12.025c-1.006-.834-3.839-3.185-7.006-5.864v-1.136c.0062956-1.8230769 1.2445132-3.4112524 3.011-3.862.0656148 1.6046146 1.3855445 2.8716736 2.9915 2.8716736s2.9258852-1.267059 2.9915-2.8716736c1.7645024.452669 3.0002925 2.0403674 3.006 3.862v2.824c-2.3 1.938-4.211 3.525-4.994 4.176zm6.994-5.863v-1.137c-.0054296-2.9246159-2.1166966-5.4201335-5-5.91 0-.668-.019-.537.058-.655.2512892-.4181658.5536093-.8034561.9-1.147.6127363-.6071125 1.0236863-1.3881618 1.177-2.237 1.1871972-.4631761 1.9404422-1.6388845 1.865-2.911.3734148-.1025826.7598738-.1497529 1.147-.14.4456791 1.7645378 2.0330485 3.0008263 3.853 3.0008263s3.4073209-1.2362885 3.853-3.0008263c2.0837362-.065063 3.8680445 1.4811925 4.1 3.553-2.114 1.939-2.696 2.747-11.953 10.584zm13.649-12.137c-.090402-.2527376-.1972985-.4992677-.32-.738 1.2598136-.905256 1.8825934-2.4573121 1.597943-3.9823015-.2846504-1.5249895-1.4253927-2.7478712-2.926943-3.1376985v-1.91c.235129-.3680495.3610034-.7952597.363-1.232 0-.684.922-1.567.552-2.793-.16312-.5175809-.4828183-.9717972-.915-1.3v-1.158c.0336905-2.0223368-.7377149-3.9751596-2.1443802-5.4285262-1.4066652-1.4533665-3.3332612-2.28811871-5.3556198-2.3204738h-1c-4.2079331.07558497-7.5618409 3.5408425-7.5 7.749v1.157c-.4320511.3281187-.7514478.7824029-.914 1.3-.372 1.229.551 2.11.551 2.794.0019966.4367403.127871.8639505.363 1.232v1.893c-.127.032-.248.08-.37.124-3.037-2.541-8.277-1.137-9.046 3.054-.6861155.3479106-1.1960463.9662063-1.407 1.706-.06 0-.116-.009-.177-.009v-2.536c.9510682-.8114912 1.6024739-1.9185288 1.85-3.144 1.8-.488 2.756-3.013 1.728-5.009.2665517-1.0839474.4081401-2.194846.422-3.311-.0044086-3.8641657-3.1358343-6.99559136-7-7h-2c-3.8641657.00440864-6.9955914 3.1358343-7 7 .0129467 1.112286.1528528 2.2194566.417 3.3-.987 1.932-.153 4.539 1.734 5.028.2471798 1.2234005.8983785 2.3282197 1.849 3.137v2.535c-2.0043168.0098305-3.8720554 1.0173819-4.981 2.687-3.546-3.352-7.019-7.455-7.019-14.97 0-9.217 5.247-14.717 14.037-14.717 5.1864231.01883933 9.9910058 2.72953423 12.689 7.159.2875369.42081721.7643289.67249842 1.274.67249842s.9864631-.25168121 1.274-.67249842c2.6979942-4.42946577 7.5025769-7.14016067 12.689-7.159 8.79 0 14.037 5.5 14.037 14.717 0 7.75-3.693 11.869-7.351 15.283z"></path></svg>