<svg xmlns="http://www.w3.org/2000/svg" height="512" viewBox="0 0 60 60" width="512"><path id="Shape" d="m57 0h-10c-1.6568542 0-3 1.34314575-3 3v10c0 1.6568542 1.3431458 3 3 3h3v1c0 .5522847-.4477153 1-1 1h-17c-.5522847 0-1-.4477153-1-1v-1h4c1.6568542 0 3-1.3431458 3-3v-10c0-1.65685425-1.3431458-3-3-3h-10c-1.6568542 0-3 1.34314575-3 3v10c0 1.6568542 1.3431458 3 3 3h4v1c0 .5522847-.4477153 1-1 1h-18c-.55228475 0-1-.4477153-1-1v-1h4c1.6568542 0 3-1.3431458 3-3v-10c0-1.65685425-1.3431458-3-3-3h-10c-1.65685425 0-3 1.34314575-3 3v10c0 1.6568542 1.34314575 3 3 3h4v1c0 1.6568542 1.34314575 3 3 3h8v2h-4c-1.6568542 0-3 1.3431458-3 3v10c0 1.6568542 1.3431458 3 3 3h4v1c0 1.6568542 1.3431458 3 3 3h8v2h-4c-1.6568542 0-3 1.3431458-3 3v10c0 1.6568542 1.3431458 3 3 3h10c1.6568542 0 3-1.3431458 3-3v-10c0-1.6568542-1.3431458-3-3-3h-4v-2h8c1.6568542 0 3-1.3431458 3-3v-1h4c1.6568542 0 3-1.3431458 3-3v-10c0-1.6568542-1.3431458-3-3-3h-4v-2h7c1.6568542 0 3-1.3431458 3-3v-1h5c1.6568542 0 3-1.3431458 3-3v-10c0-1.65685425-1.3431458-3-3-3zm-28 7c0-.55228475.4477153-1 1-1s1 .44771525 1 1-.4477153 1-1 1-1-.44771525-1-1zm-5 6v-10c0-.55228475.4477153-1 1-1h10c.5522847 0 1 .44771525 1 1v10c0 .5522847-.4477153 1-1 1h-1v-2c-.0031967-1.2613061-.6037777-2.44651688-1.619-3.195.9376091-1.2321177.7803368-2.9760254-.3625853-4.02051278-1.1429222-1.04448737-2.8939072-1.04448737-4.0368294 0-1.1429221 1.04448738-1.3001944 2.78839508-.3625853 4.02051278-1.0152223.74848312-1.6158033 1.9336939-1.619 3.195v2h-1c-.5522847 0-1-.4477153-1-1zm4-1c0-1.1045695.8954305-2 2-2s2 .8954305 2 2v2h-4zm-21-5c0-.55228475.44771525-1 1-1s1 .44771525 1 1-.44771525 1-1 1-1-.44771525-1-1zm-5 6v-10c0-.55228475.44771525-1 1-1h10c.5522847 0 1 .44771525 1 1v10c0 .5522847-.4477153 1-1 1h-1v-2c-.0031967-1.2613061-.6037777-2.44651688-1.619-3.195.9376091-1.2321177.7803368-2.9760254-.3625853-4.02051278-1.14292217-1.04448737-2.89390723-1.04448737-4.03682937 0-1.14292214 1.04448738-1.30019446 2.78839508-.36258533 4.02051278-1.01522231.74848312-1.61580329 1.9336939-1.619 3.195v2h-1c-.55228475 0-1-.4477153-1-1zm4-1c0-1.1045695.8954305-2 2-2s2 .8954305 2 2v2h-4zm23 39c0-.5522847.4477153-1 1-1s1 .4477153 1 1-.4477153 1-1 1-1-.4477153-1-1zm-1 7v-2c0-1.1045695.8954305-2 2-2s2 .8954305 2 2v2zm8-11v10c0 .5522847-.4477153 1-1 1h-1v-2c-.0031967-1.2613061-.6037777-2.4465169-1.619-3.195.9376091-1.2321177.7803368-2.9760254-.3625853-4.0205128-1.1429222-1.0444874-2.8939072-1.0444874-4.0368294 0-1.1429221 1.0444874-1.3001944 2.7883951-.3625853 4.0205128-1.0152223.7484831-1.6158033 1.9336939-1.619 3.195v2h-1c-.5522847 0-1-.4477153-1-1v-10c0-.5522847.4477153-1 1-1h10c.5522847 0 1 .4477153 1 1zm-23-12v-10c0-.5522847.4477153-1 1-1h10c.5522847 0 1 .4477153 1 1v10c0 .5522847-.4477153 1-1 1h-1v-2c-.0031967-1.2613061-.6037777-2.4465169-1.619-3.195.9376091-1.2321177.7803368-2.9760254-.3625853-4.0205128-1.1429222-1.0444874-2.8939072-1.0444874-4.0368294 0-1.1429221 1.0444874-1.3001944 2.7883951-.3625853 4.0205128-1.0152223.7484831-1.6158033 1.9336939-1.619 3.195v2h-1c-.5522847 0-1-.4477153-1-1zm5-6c0-.5522847.4477153-1 1-1s1 .4477153 1 1-.4477153 1-1 1-1-.4477153-1-1zm-1 5c0-1.1045695.8954305-2 2-2s2 .8954305 2 2v2h-4zm22 2v-2c0-1.1045695.8954305-2 2-2s2 .8954305 2 2v2zm1-7c0-.5522847.4477153-1 1-1s1 .4477153 1 1-.4477153 1-1 1-1-.4477153-1-1zm7-4v10c0 .5522847-.4477153 1-1 1h-1v-2c-.0031967-1.2613061-.6037777-2.4465169-1.619-3.195.9376091-1.2321177.7803368-2.9760254-.3625853-4.0205128-1.1429222-1.0444874-2.8939072-1.0444874-4.0368294 0-1.1429221 1.0444874-1.3001944 2.7883951-.3625853 4.0205128-1.0152223.7484831-1.6158033 1.9336939-1.619 3.195v2h-1c-.5522847 0-1-.4477153-1-1v-10c0-.5522847.4477153-1 1-1h10c.5522847 0 1 .4477153 1 1zm-7-3h-4c-1.6568542 0-3 1.3431458-3 3v10c0 1.6568542 1.3431458 3 3 3h4v1c0 .5522847-.4477153 1-1 1h-18c-.5522847 0-1-.4477153-1-1v-1h4c1.6568542 0 3-1.3431458 3-3v-10c0-1.6568542-1.3431458-3-3-3h-4v-2h8c.740399-.0026037 1.4533329-.2806479 2-.78.5466671.4993521 1.259601.7773963 2 .78h8zm11-15c0-.55228475.4477153-1 1-1s1 .44771525 1 1-.4477153 1-1 1-1-.44771525-1-1zm-1 7v-2c0-1.1045695.8954305-2 2-2s2 .8954305 2 2v2zm8-1c0 .5522847-.4477153 1-1 1h-1v-2c-.0031967-1.2613061-.6037777-2.44651688-1.619-3.195.9376091-1.2321177.7803368-2.9760254-.3625853-4.02051278-1.1429222-1.04448737-2.8939072-1.04448737-4.0368294 0-1.1429221 1.04448738-1.3001944 2.78839508-.3625853 4.02051278-1.0152223.74848312-1.6158033 1.9336939-1.619 3.195v2h-1c-.5522847 0-1-.4477153-1-1v-10c0-.55228475.4477153-1 1-1h10c.5522847 0 1 .44771525 1 1z"></path></svg>